<svg width="67" height="80" viewBox="0 0 67 80" fill="none" xmlns="http://www.w3.org/2000/svg">
<path d="M0 0H66.5765V80H0V0Z" fill="#C59756"/>
<mask id="mask0_844_413" style="mask-type:alpha" maskUnits="userSpaceOnUse" x="0" y="0" width="67" height="80">
<path d="M0 0H66.5765V80H0V0Z" fill="#D9D9D9"/>
</mask>
<g mask="url(#mask0_844_413)">
<path d="M0 32.801H13.4235V47.1989H0V32.801Z" fill="#766717"/>
<path d="M13.4219 40.0542H66.5748V54.452H13.4219V40.0542Z" fill="#766717"/>
<path d="M13.4219 33.7754H28.4692V40.0541H13.4219V33.7754Z" fill="black"/>
<path d="M0 26.4141H13.4235V32.8011H0V26.4141Z" fill="black"/>
<path d="M51.6406 33.7754H66.5797V40.0541H51.6406V33.7754Z" fill="black"/>
<path d="M34.3203 27.1719H49.2594V33.4506H34.3203V27.1719Z" fill="black"/>
<path d="M28.4688 40.0542H51.6352V47.199H28.4688V40.0542Z" fill="black"/>
<path d="M13.4219 0H28.4692V33.7754H13.4219V0Z" fill="#00C800"/>
<path d="M51.6406 0H66.5797V34.6414H51.6406V0Z" fill="#00C800"/>
<path d="M28.4688 0H51.6352V40.0541H28.4688V0Z" fill="#00C800"/>
<path d="M0 0H13.4235V26.5223H0V0Z" fill="#00C800"/>
<path d="M25.7656 73.7212H40.7047V79.9999H25.7656V73.7212Z" fill="#DFBF4E"/>
<path d="M0 59.6482H7.14479V73.9378H0V59.6482Z" fill="#DFBF4E"/>
<path d="M59.6484 59.6482H66.5767V73.9378H59.6484V59.6482Z" fill="#DFBF4E"/>
</g>
</svg>
