<svg width="4096" height="2619" viewBox="0 0 4096 2619" fill="none" xmlns="http://www.w3.org/2000/svg">
<rect width="4096" height="1139" fill="#2DBDEF"/>
<path fill-rule="evenodd" clip-rule="evenodd" d="M4096 1155V1961H0V1156V1107V859.37H153.919V755H313.504V908.808H415.96V806.935H536.829V949.757H694.525V859.37H695.635H769.596H801.23H849.554V755H1009.14V908.808H1111.59V806.935H1232.46V949.757H1390.16V859.37H1398.68H1465.23H1496.86H1552.6V755H1712.18V908.808H1814.64V806.935H1935.51V949.757H2093.2V859.37H2094.31H2168.28H2199.91H2248.23V755H2407.82V908.808H2510.27V806.935H2631.14V859.849H2639.85H2714.49V949.757H2788.84V859.37H2863.91H2871.27V807.676H2991.44V909.041H3093.3V756H3251.97V859.849H3299.4H3330.85H3405H3405.49V949.786H3562.27V807.676H3682.44V909.041H3784.31V756H3942.97V859.849H4096V1107V1155Z" fill="#60C6EE"/>
<path fill-rule="evenodd" clip-rule="evenodd" d="M0 2097V1961V1801.85H153.03V1698H311.692V1851.04H413.555V1749.68H533.726V1891.79H690.511V1801.85H691.003H765.148H796.599H844.033V1698H1002.7V1851.04H1104.56V1749.68H1224.73V1801.37H1232.09H1307.16V1891.76H1381.51V1801.85H1456.15H1464.86V1748.94H1585.73V1850.81H1688.18V1697H1847.77V1801.37H1896.09H1927.72H2001.69H2002.8V1891.76H2160.49V1748.94H2281.36V1850.81H2383.82V1697H2543.4V1801.37H2599.14H2630.77H2697.32H2705.84V1891.76H2863.54V1748.94H2984.41V1850.81H3086.86V1697H3246.45V1801.37H3294.77H3326.4H3400.37H3401.47V1891.76H3559.17V1748.94H3680.04V1850.81H3782.5V1697H3942.08V1801.37H4096V1961V2098V2619H0V2097Z" fill="#8BD2F0"/>
</svg>
