<svg width="7995" height="739" viewBox="0 0 7995 739" fill="none" xmlns="http://www.w3.org/2000/svg">
<path d="M5535 0H6150V739H5535V0Z" fill="#C59756"/>
<mask id="mask0_844_481" style="mask-type:alpha" maskUnits="userSpaceOnUse" x="5535" y="0" width="615" height="739">
<path d="M5535 0H6150V739H5535V0Z" fill="#D9D9D9"/>
</mask>
<g mask="url(#mask0_844_481)">
<path d="M5535 303H5659V436H5535V303Z" fill="#766717"/>
<path d="M5659 370H6150V503H5659V370Z" fill="#766717"/>
<path d="M5659 312H5798V370H5659V312Z" fill="black"/>
<path d="M5535 244H5659V303H5535V244Z" fill="black"/>
<path d="M6012 312H6150V370H6012V312Z" fill="black"/>
<path d="M5852 251H5990V309H5852V251Z" fill="black"/>
<path d="M5798 370H6012V436H5798V370Z" fill="black"/>
<path d="M5659 0H5798V312H5659V0Z" fill="#00C800"/>
<path d="M6012 0H6150V320H6012V0Z" fill="#00C800"/>
<path d="M5798 0H6012V370H5798V0Z" fill="#00C800"/>
<path d="M5535 0H5659V245H5535V0Z" fill="#00C800"/>
<path d="M5773 681H5911V739H5773V681Z" fill="#DFBF4E"/>
<path d="M5535 551H5601V683H5535V551Z" fill="#DFBF4E"/>
<path d="M6086 551H6150V683H6086V551Z" fill="#DFBF4E"/>
</g>
<path d="M3690 0H4305V739H3690V0Z" fill="#C59756"/>
<mask id="mask1_844_481" style="mask-type:alpha" maskUnits="userSpaceOnUse" x="3690" y="0" width="615" height="739">
<path d="M3690 0H4305V739H3690V0Z" fill="#D9D9D9"/>
</mask>
<g mask="url(#mask1_844_481)">
<path d="M3690 303H3814V436H3690V303Z" fill="#766717"/>
<path d="M3814 370H4305V503H3814V370Z" fill="#766717"/>
<path d="M3814 312H3953V370H3814V312Z" fill="black"/>
<path d="M3690 244H3814V303H3690V244Z" fill="black"/>
<path d="M4167 312H4305V370H4167V312Z" fill="black"/>
<path d="M4007 251H4145V309H4007V251Z" fill="black"/>
<path d="M3953 370H4167V436H3953V370Z" fill="black"/>
<path d="M3814 0H3953V312H3814V0Z" fill="#00C800"/>
<path d="M4167 0H4305V320H4167V0Z" fill="#00C800"/>
<path d="M3953 0H4167V370H3953V0Z" fill="#00C800"/>
<path d="M3690 0H3814V245H3690V0Z" fill="#00C800"/>
<path d="M3928 681H4066V739H3928V681Z" fill="#DFBF4E"/>
<path d="M3690 551H3756V683H3690V551Z" fill="#DFBF4E"/>
<path d="M4241 551H4305V683H4241V551Z" fill="#DFBF4E"/>
</g>
<path d="M6150 0H6765V739H6150V0Z" fill="#C59756"/>
<mask id="mask2_844_481" style="mask-type:alpha" maskUnits="userSpaceOnUse" x="6150" y="0" width="615" height="739">
<path d="M6150 0H6765V739H6150V0Z" fill="#D9D9D9"/>
</mask>
<g mask="url(#mask2_844_481)">
<path d="M6150 303H6274V436H6150V303Z" fill="#766717"/>
<path d="M6274 370H6765V503H6274V370Z" fill="#766717"/>
<path d="M6274 312H6413V370H6274V312Z" fill="black"/>
<path d="M6150 244H6274V303H6150V244Z" fill="black"/>
<path d="M6627 312H6765V370H6627V312Z" fill="black"/>
<path d="M6467 251H6605V309H6467V251Z" fill="black"/>
<path d="M6413 370H6627V436H6413V370Z" fill="black"/>
<path d="M6274 0H6413V312H6274V0Z" fill="#00C800"/>
<path d="M6627 0H6765V320H6627V0Z" fill="#00C800"/>
<path d="M6413 0H6627V370H6413V0Z" fill="#00C800"/>
<path d="M6150 0H6274V245H6150V0Z" fill="#00C800"/>
<path d="M6388 681H6526V739H6388V681Z" fill="#DFBF4E"/>
<path d="M6150 551H6216V683H6150V551Z" fill="#DFBF4E"/>
<path d="M6701 551H6765V683H6701V551Z" fill="#DFBF4E"/>
</g>
<path d="M4305 0H4920V739H4305V0Z" fill="#C59756"/>
<mask id="mask3_844_481" style="mask-type:alpha" maskUnits="userSpaceOnUse" x="4305" y="0" width="615" height="739">
<path d="M4305 0H4920V739H4305V0Z" fill="#D9D9D9"/>
</mask>
<g mask="url(#mask3_844_481)">
<path d="M4305 303H4429V436H4305V303Z" fill="#766717"/>
<path d="M4429 370H4920V503H4429V370Z" fill="#766717"/>
<path d="M4429 312H4568V370H4429V312Z" fill="black"/>
<path d="M4305 244H4429V303H4305V244Z" fill="black"/>
<path d="M4782 312H4920V370H4782V312Z" fill="black"/>
<path d="M4622 251H4760V309H4622V251Z" fill="black"/>
<path d="M4568 370H4782V436H4568V370Z" fill="black"/>
<path d="M4429 0H4568V312H4429V0Z" fill="#00C800"/>
<path d="M4782 0H4920V320H4782V0Z" fill="#00C800"/>
<path d="M4568 0H4782V370H4568V0Z" fill="#00C800"/>
<path d="M4305 0H4429V245H4305V0Z" fill="#00C800"/>
<path d="M4543 681H4681V739H4543V681Z" fill="#DFBF4E"/>
<path d="M4305 551H4371V683H4305V551Z" fill="#DFBF4E"/>
<path d="M4856 551H4920V683H4856V551Z" fill="#DFBF4E"/>
</g>
<path d="M6765 0H7380V739H6765V0Z" fill="#C59756"/>
<mask id="mask4_844_481" style="mask-type:alpha" maskUnits="userSpaceOnUse" x="6765" y="0" width="615" height="739">
<path d="M6765 0H7380V739H6765V0Z" fill="#D9D9D9"/>
</mask>
<g mask="url(#mask4_844_481)">
<path d="M6765 303H6889V436H6765V303Z" fill="#766717"/>
<path d="M6889 370H7380V503H6889V370Z" fill="#766717"/>
<path d="M6889 312H7028V370H6889V312Z" fill="black"/>
<path d="M6765 244H6889V303H6765V244Z" fill="black"/>
<path d="M7242 312H7380V370H7242V312Z" fill="black"/>
<path d="M7082 251H7220V309H7082V251Z" fill="black"/>
<path d="M7028 370H7242V436H7028V370Z" fill="black"/>
<path d="M6889 0H7028V312H6889V0Z" fill="#00C800"/>
<path d="M7242 0H7380V320H7242V0Z" fill="#00C800"/>
<path d="M7028 0H7242V370H7028V0Z" fill="#00C800"/>
<path d="M6765 0H6889V245H6765V0Z" fill="#00C800"/>
<path d="M7003 681H7141V739H7003V681Z" fill="#DFBF4E"/>
<path d="M6765 551H6831V683H6765V551Z" fill="#DFBF4E"/>
<path d="M7316 551H7380V683H7316V551Z" fill="#DFBF4E"/>
</g>
<path d="M4920 0H5535V739H4920V0Z" fill="#C59756"/>
<mask id="mask5_844_481" style="mask-type:alpha" maskUnits="userSpaceOnUse" x="4920" y="0" width="615" height="739">
<path d="M4920 0H5535V739H4920V0Z" fill="#D9D9D9"/>
</mask>
<g mask="url(#mask5_844_481)">
<path d="M4920 303H5044V436H4920V303Z" fill="#766717"/>
<path d="M5044 370H5535V503H5044V370Z" fill="#766717"/>
<path d="M5044 312H5183V370H5044V312Z" fill="black"/>
<path d="M4920 244H5044V303H4920V244Z" fill="black"/>
<path d="M5397 312H5535V370H5397V312Z" fill="black"/>
<path d="M5237 251H5375V309H5237V251Z" fill="black"/>
<path d="M5183 370H5397V436H5183V370Z" fill="black"/>
<path d="M5044 0H5183V312H5044V0Z" fill="#00C800"/>
<path d="M5397 0H5535V320H5397V0Z" fill="#00C800"/>
<path d="M5183 0H5397V370H5183V0Z" fill="#00C800"/>
<path d="M4920 0H5044V245H4920V0Z" fill="#00C800"/>
<path d="M5158 681H5296V739H5158V681Z" fill="#DFBF4E"/>
<path d="M4920 551H4986V683H4920V551Z" fill="#DFBF4E"/>
<path d="M5471 551H5535V683H5471V551Z" fill="#DFBF4E"/>
</g>
<path d="M7380 0H7995V739H7380V0Z" fill="#C59756"/>
<mask id="mask6_844_481" style="mask-type:alpha" maskUnits="userSpaceOnUse" x="7380" y="0" width="615" height="739">
<path d="M7380 0H7995V739H7380V0Z" fill="#D9D9D9"/>
</mask>
<g mask="url(#mask6_844_481)">
<path d="M7380 303H7504V436H7380V303Z" fill="#766717"/>
<path d="M7504 370H7995V503H7504V370Z" fill="#766717"/>
<path d="M7504 312H7643V370H7504V312Z" fill="black"/>
<path d="M7380 244H7504V303H7380V244Z" fill="black"/>
<path d="M7857 312H7995V370H7857V312Z" fill="black"/>
<path d="M7697 251H7835V309H7697V251Z" fill="black"/>
<path d="M7643 370H7857V436H7643V370Z" fill="black"/>
<path d="M7504 0H7643V312H7504V0Z" fill="#00C800"/>
<path d="M7857 0H7995V320H7857V0Z" fill="#00C800"/>
<path d="M7643 0H7857V370H7643V0Z" fill="#00C800"/>
<path d="M7380 0H7504V245H7380V0Z" fill="#00C800"/>
<path d="M7618 681H7756V739H7618V681Z" fill="#DFBF4E"/>
<path d="M7380 551H7446V683H7380V551Z" fill="#DFBF4E"/>
<path d="M7931 551H7995V683H7931V551Z" fill="#DFBF4E"/>
</g>
<path d="M1230 0H1845V739H1230V0Z" fill="#C59756"/>
<mask id="mask7_844_481" style="mask-type:alpha" maskUnits="userSpaceOnUse" x="1230" y="0" width="615" height="739">
<path d="M1230 0H1845V739H1230V0Z" fill="#D9D9D9"/>
</mask>
<g mask="url(#mask7_844_481)">
<path d="M1230 303H1354V436H1230V303Z" fill="#766717"/>
<path d="M1354 370H1845V503H1354V370Z" fill="#766717"/>
<path d="M1354 312H1493V370H1354V312Z" fill="black"/>
<path d="M1230 244H1354V303H1230V244Z" fill="black"/>
<path d="M1707 312H1845V370H1707V312Z" fill="black"/>
<path d="M1547 251H1685V309H1547V251Z" fill="black"/>
<path d="M1493 370H1707V436H1493V370Z" fill="black"/>
<path d="M1354 0H1493V312H1354V0Z" fill="#00C800"/>
<path d="M1707 0H1845V320H1707V0Z" fill="#00C800"/>
<path d="M1493 0H1707V370H1493V0Z" fill="#00C800"/>
<path d="M1230 0H1354V245H1230V0Z" fill="#00C800"/>
<path d="M1468 681H1606V739H1468V681Z" fill="#DFBF4E"/>
<path d="M1230 551H1296V683H1230V551Z" fill="#DFBF4E"/>
<path d="M1781 551H1845V683H1781V551Z" fill="#DFBF4E"/>
</g>
<path d="M1845 0H2460V739H1845V0Z" fill="#C59756"/>
<mask id="mask8_844_481" style="mask-type:alpha" maskUnits="userSpaceOnUse" x="1845" y="0" width="615" height="739">
<path d="M1845 0H2460V739H1845V0Z" fill="#D9D9D9"/>
</mask>
<g mask="url(#mask8_844_481)">
<path d="M1845 303H1969V436H1845V303Z" fill="#766717"/>
<path d="M1969 370H2460V503H1969V370Z" fill="#766717"/>
<path d="M1969 312H2108V370H1969V312Z" fill="black"/>
<path d="M1845 244H1969V303H1845V244Z" fill="black"/>
<path d="M2322 312H2460V370H2322V312Z" fill="black"/>
<path d="M2162 251H2300V309H2162V251Z" fill="black"/>
<path d="M2108 370H2322V436H2108V370Z" fill="black"/>
<path d="M1969 0H2108V312H1969V0Z" fill="#00C800"/>
<path d="M2322 0H2460V320H2322V0Z" fill="#00C800"/>
<path d="M2108 0H2322V370H2108V0Z" fill="#00C800"/>
<path d="M1845 0H1969V245H1845V0Z" fill="#00C800"/>
<path d="M2083 681H2221V739H2083V681Z" fill="#DFBF4E"/>
<path d="M1845 551H1911V683H1845V551Z" fill="#DFBF4E"/>
<path d="M2396 551H2460V683H2396V551Z" fill="#DFBF4E"/>
</g>
<path d="M0 0H615V739H0V0Z" fill="#C59756"/>
<mask id="mask9_844_481" style="mask-type:alpha" maskUnits="userSpaceOnUse" x="0" y="0" width="615" height="739">
<path d="M0 0H615V739H0V0Z" fill="#D9D9D9"/>
</mask>
<g mask="url(#mask9_844_481)">
<path d="M0 303H124V436H0V303Z" fill="#766717"/>
<path d="M124 370H615V503H124V370Z" fill="#766717"/>
<path d="M124 312H263V370H124V312Z" fill="black"/>
<path d="M0 244H124V303H0V244Z" fill="black"/>
<path d="M477 312H615V370H477V312Z" fill="black"/>
<path d="M317 251H455V309H317V251Z" fill="black"/>
<path d="M263 370H477V436H263V370Z" fill="black"/>
<path d="M124 0H263V312H124V0Z" fill="#00C800"/>
<path d="M477 0H615V320H477V0Z" fill="#00C800"/>
<path d="M263 0H477V370H263V0Z" fill="#00C800"/>
<path d="M0 0H124V245H0V0Z" fill="#00C800"/>
<path d="M238 681H376V739H238V681Z" fill="#DFBF4E"/>
<path d="M0 551H66V683H0V551Z" fill="#DFBF4E"/>
<path d="M551 551H615V683H551V551Z" fill="#DFBF4E"/>
</g>
<path d="M2460 0H3075V739H2460V0Z" fill="#C59756"/>
<mask id="mask10_844_481" style="mask-type:alpha" maskUnits="userSpaceOnUse" x="2460" y="0" width="615" height="739">
<path d="M2460 0H3075V739H2460V0Z" fill="#D9D9D9"/>
</mask>
<g mask="url(#mask10_844_481)">
<path d="M2460 303H2584V436H2460V303Z" fill="#766717"/>
<path d="M2584 370H3075V503H2584V370Z" fill="#766717"/>
<path d="M2584 312H2723V370H2584V312Z" fill="black"/>
<path d="M2460 244H2584V303H2460V244Z" fill="black"/>
<path d="M2937 312H3075V370H2937V312Z" fill="black"/>
<path d="M2777 251H2915V309H2777V251Z" fill="black"/>
<path d="M2723 370H2937V436H2723V370Z" fill="black"/>
<path d="M2584 0H2723V312H2584V0Z" fill="#00C800"/>
<path d="M2937 0H3075V320H2937V0Z" fill="#00C800"/>
<path d="M2723 0H2937V370H2723V0Z" fill="#00C800"/>
<path d="M2460 0H2584V245H2460V0Z" fill="#00C800"/>
<path d="M2698 681H2836V739H2698V681Z" fill="#DFBF4E"/>
<path d="M2460 551H2526V683H2460V551Z" fill="#DFBF4E"/>
<path d="M3011 551H3075V683H3011V551Z" fill="#DFBF4E"/>
</g>
<path d="M615 0H1230V739H615V0Z" fill="#C59756"/>
<mask id="mask11_844_481" style="mask-type:alpha" maskUnits="userSpaceOnUse" x="615" y="0" width="615" height="739">
<path d="M615 0H1230V739H615V0Z" fill="#D9D9D9"/>
</mask>
<g mask="url(#mask11_844_481)">
<path d="M615 303H739V436H615V303Z" fill="#766717"/>
<path d="M739 370H1230V503H739V370Z" fill="#766717"/>
<path d="M739 312H878V370H739V312Z" fill="black"/>
<path d="M615 244H739V303H615V244Z" fill="black"/>
<path d="M1092 312H1230V370H1092V312Z" fill="black"/>
<path d="M932 251H1070V309H932V251Z" fill="black"/>
<path d="M878 370H1092V436H878V370Z" fill="black"/>
<path d="M739 0H878V312H739V0Z" fill="#00C800"/>
<path d="M1092 0H1230V320H1092V0Z" fill="#00C800"/>
<path d="M878 0H1092V370H878V0Z" fill="#00C800"/>
<path d="M615 0H739V245H615V0Z" fill="#00C800"/>
<path d="M853 681H991V739H853V681Z" fill="#DFBF4E"/>
<path d="M615 551H681V683H615V551Z" fill="#DFBF4E"/>
<path d="M1166 551H1230V683H1166V551Z" fill="#DFBF4E"/>
</g>
<path d="M3075 0H3690V739H3075V0Z" fill="#C59756"/>
<mask id="mask12_844_481" style="mask-type:alpha" maskUnits="userSpaceOnUse" x="3075" y="0" width="615" height="739">
<path d="M3075 0H3690V739H3075V0Z" fill="#D9D9D9"/>
</mask>
<g mask="url(#mask12_844_481)">
<path d="M3075 303H3199V436H3075V303Z" fill="#766717"/>
<path d="M3199 370H3690V503H3199V370Z" fill="#766717"/>
<path d="M3199 312H3338V370H3199V312Z" fill="black"/>
<path d="M3075 244H3199V303H3075V244Z" fill="black"/>
<path d="M3552 312H3690V370H3552V312Z" fill="black"/>
<path d="M3392 251H3530V309H3392V251Z" fill="black"/>
<path d="M3338 370H3552V436H3338V370Z" fill="black"/>
<path d="M3199 0H3338V312H3199V0Z" fill="#00C800"/>
<path d="M3552 0H3690V320H3552V0Z" fill="#00C800"/>
<path d="M3338 0H3552V370H3338V0Z" fill="#00C800"/>
<path d="M3075 0H3199V245H3075V0Z" fill="#00C800"/>
<path d="M3313 681H3451V739H3313V681Z" fill="#DFBF4E"/>
<path d="M3075 551H3141V683H3075V551Z" fill="#DFBF4E"/>
<path d="M3626 551H3690V683H3626V551Z" fill="#DFBF4E"/>
</g>
</svg>
