<svg width="1482" height="739" viewBox="0 0 1482 739" fill="none" xmlns="http://www.w3.org/2000/svg">
<mask id="mask0_827_1385" style="mask-type:alpha" maskUnits="userSpaceOnUse" x="0" y="0" width="1482" height="739">
<path d="M0 120C0 53.7258 53.7258 0 120 0H1362C1428.27 0 1482 53.7258 1482 120V739H0V120Z" fill="#D9D9D9"/>
</mask>
<g mask="url(#mask0_827_1385)">
<path d="M-2566 90C-2566 40.2944 -2525.71 0 -2476 0H3956.74C4006.44 0 4046.74 40.2944 4046.74 90V3297.44H-2566V90Z" fill="#C59756"/>
<rect x="39.8281" y="343.577" width="138.323" height="66.9305" fill="black"/>
<rect x="178.156" y="276.646" width="138.323" height="66.9305" fill="black"/>
<rect x="521.727" y="343.577" width="138.323" height="66.9305" fill="black"/>
<rect x="874.23" y="343.577" width="138.323" height="66.9305" fill="black"/>
<rect x="1012.56" y="276.646" width="138.323" height="66.9305" fill="black"/>
<rect x="-174.352" y="410.507" width="214.178" height="66.9305" fill="black"/>
<rect x="660.051" y="410.507" width="214.178" height="66.9305" fill="black"/>
<rect x="307.551" y="276.646" width="214.178" height="66.9305" fill="black"/>
<rect x="39.8281" y="410.507" width="138.323" height="133.861" fill="#766717"/>
<rect x="178.156" y="343.577" width="138.323" height="133.861" fill="#766717"/>
<rect x="-174.352" y="477.438" width="214.178" height="66.9305" fill="#766717"/>
<rect x="521.727" y="410.507" width="138.323" height="133.861" fill="#766717"/>
<rect x="874.23" y="410.507" width="138.323" height="133.861" fill="#766717"/>
<rect x="1012.56" y="343.577" width="138.323" height="133.861" fill="#766717"/>
<rect x="39.8281" y="35.6962" width="138.323" height="325.729" fill="#00C800"/>
<rect x="178.156" y="8.92407" width="138.323" height="285.57" fill="#00C800"/>
<rect x="660.051" y="477.438" width="214.178" height="66.9305" fill="#766717"/>
<rect x="307.551" y="343.577" width="214.178" height="133.861" fill="#766717"/>
<rect x="-174.352" y="35.6962" width="214.178" height="374.811" fill="#00C800"/>
<rect x="521.727" y="35.6962" width="138.323" height="316.805" fill="#00C800"/>
<rect x="874.23" y="35.6962" width="138.323" height="325.729" fill="#00C800"/>
<rect x="1012.56" y="8.92407" width="138.323" height="285.57" fill="#00C800"/>
<rect x="660.051" y="35.6962" width="214.178" height="374.811" fill="#00C800"/>
<rect x="307.551" y="8.92407" width="214.178" height="276.646" fill="#00C800"/>
<rect x="396.797" y="687.154" width="138.323" height="205.254" fill="#DFBF4E"/>
<rect x="1150.88" y="343.577" width="138.323" height="66.9305" fill="black"/>
<rect x="1289.2" y="276.646" width="209.716" height="66.9305" fill="black"/>
<rect x="1150.88" y="410.507" width="397.121" height="66.9305" fill="#766717"/>
<rect x="1289.2" y="343.577" width="209.716" height="66.9305" fill="#766717"/>
<rect x="1150.88" y="35.6962" width="138.323" height="307.881" fill="#00C800"/>
<rect x="1289.2" y="8.92407" width="209.716" height="276.646" fill="#00C800"/>
<path d="M-2476 6H3956.74C4003.13 6 4040.74 43.6081 4040.74 90V3291.44H-2560V90C-2560 43.6081 -2522.39 6 -2476 6Z" stroke="black" stroke-width="12"/>
<rect x="954.547" y="687.154" width="138.323" height="205.254" fill="#DFBF4E"/>
</g>
<path d="M120 21.5H1362C1416.4 21.5 1460.5 65.6 1460.5 120V717.5H21.5V120C21.5 65.6 65.6 21.5 120 21.5Z" stroke="black" stroke-width="43"/>
</svg>
