<svg width="741" height="739" viewBox="0 0 741 739" fill="none" xmlns="http://www.w3.org/2000/svg">
<mask id="mask0_827_1257" style="mask-type:alpha" maskUnits="userSpaceOnUse" x="0" y="0" width="741" height="739">
<path d="M0 120C0 53.7258 53.7258 0 120 0H621C687.274 0 741 53.7258 741 120V739H0V120Z" fill="#D9D9D9"/>
</mask>
<g mask="url(#mask0_827_1257)">
<path d="M-2129 49C-2129 -0.705626 -2088.71 -41 -2039 -41H1087.37C1137.07 -41 1177.37 -0.705626 1177.37 49V3256.44H-2129V49Z" fill="#C59756"/>
<rect x="124.332" y="302.577" width="138.323" height="66.9305" fill="black"/>
<rect x="476.828" y="302.577" width="138.323" height="66.9305" fill="black"/>
<rect x="615.156" y="235.646" width="138.323" height="66.9305" fill="black"/>
<rect x="262.648" y="369.507" width="214.178" height="66.9305" fill="black"/>
<rect x="-89.8516" y="235.646" width="214.178" height="66.9305" fill="black"/>
<rect x="124.332" y="369.507" width="138.323" height="133.861" fill="#766717"/>
<rect x="476.828" y="369.507" width="138.323" height="133.861" fill="#766717"/>
<rect x="615.156" y="302.577" width="138.323" height="133.861" fill="#766717"/>
<rect x="262.648" y="436.438" width="214.178" height="66.9305" fill="#766717"/>
<rect x="-89.8516" y="302.577" width="214.178" height="133.861" fill="#766717"/>
<rect x="124.332" y="-5.30383" width="138.323" height="316.805" fill="#00C800"/>
<rect x="476.828" y="-5.30383" width="138.323" height="325.729" fill="#00C800"/>
<rect x="615.156" y="-32.0759" width="138.323" height="285.57" fill="#00C800"/>
<rect x="262.648" y="-5.30383" width="214.178" height="374.811" fill="#00C800"/>
<rect x="-89.8516" y="-32.0759" width="214.178" height="276.646" fill="#00C800"/>
<rect x="289.422" y="646.154" width="138.323" height="205.254" fill="#DFBF4E"/>
<rect x="-125.543" y="579.223" width="138.323" height="205.254" fill="#DFBF4E"/>
<path d="M-2039 -35H1087.37C1133.76 -35 1171.37 2.60808 1171.37 49V3250.44H-2123V49C-2123 2.60808 -2085.39 -35 -2039 -35Z" stroke="black" stroke-width="12"/>
<path d="M120 21.5H621C675.4 21.5 719.5 65.6 719.5 120V717.5H21.5V120C21.5 65.6 65.6 21.5 120 21.5Z" stroke="black" stroke-width="43"/>
</g>
</svg>
